# xmcd CD database file
#
# Track frame offsets:
#	150
#	20396
#	38777
#	57485
#	74392
#	89099
#	110156
#	124307
#	135270
#	157573
#	176351
#	195635
#	211232
#	229554
#	252531
#
# Disc length: 3712 seconds
#
# Revision: 0
# Processed by: cddbd v1.5.2PL0 Copyright (c) Steve Scherf et al.
# Submitted via: CDex 1.51
#
DISCID=cd0e7e0f
DTITLE=Madeleine Peyroux - KCRW Morning Becomes Eclectic 2005-2006
DYEAR=2006
DGENRE=Blues
TTITLE0=Madeleine Peyroux - Dance Me To End Of Love
TTITLE1=Madeleine Peyroux - Don't Wait Too Long
TTITLE2=Madeleine Peyroux - Between The Bars
TTITLE3=Madeleine Peyroux - You're Gonna Make Me Lonesome
TTITLE4=Madeleine Peyroux - J'ai Deux Amour
TTITLE5=Madeleine Peyroux - Careless Love
TTITLE6=Madeleine Peyroux - I'll Look Around
TTITLE7=Madeleine Peyroux - Don't Cry Baby
TTITLE8=Madeleine Peyroux - Blue Alert
TTITLE9=Madeleine Peyroux - Everybody's Talkin'
TTITLE10=Madeleine Peyroux - Half The Perfect World
TTITLE11=Madeleine Peyroux -  I'm All Right
TTITLE12=Madeleine Peyroux - (Looking For) The Heart Of Saturday Night
TTITLE13=Madeleine Peyroux - A Little Bit
TTITLE14=Madeleine Peyroux - I Think It's Gonna Rain
EXTD=YEAR: 2006
EXTT0=
EXTT1=
EXTT2=
EXTT3=
EXTT4=
EXTT5=
EXTT6=
EXTT7=
EXTT8=
EXTT9=
EXTT10=
EXTT11=
EXTT12=
EXTT13=
EXTT14=
PLAYORDER=
